<mxfile host="app.diagrams.net" modified="2024-03-27T00:02:25.003Z" agent="Mozilla/5.0 (Macintosh; Intel Mac OS X 10_15_7) AppleWebKit/537.36 (KHTML, like Gecko) Chrome/118.0.0.0 Safari/537.36" etag="sAgvoHkHZCL4ZtCu2zut" version="24.1.0" type="github">
  <diagram name="第 1 页" id="XfYK5ym5bn-TH3xhJaiv">
    <mxGraphModel dx="954" dy="610" grid="1" gridSize="10" guides="1" tooltips="1" connect="1" arrows="1" fold="1" page="1" pageScale="1" pageWidth="827" pageHeight="1169" math="0" shadow="0">
      <root>
        <mxCell id="0" />
        <mxCell id="1" parent="0" />
        <mxCell id="dV2PWm62k9ZfegvU0sN4-1" value="Git" style="rounded=0;whiteSpace=wrap;html=1;" vertex="1" parent="1">
          <mxGeometry x="90" y="70" width="120" height="60" as="geometry" />
        </mxCell>
        <mxCell id="dV2PWm62k9ZfegvU0sN4-2" value="直接记录快照，而非差异比较&lt;div&gt;&lt;br&gt;&lt;/div&gt;&lt;div&gt;&lt;span style=&quot;color: rgb(78, 68, 60); font-family: sans-serif; font-size: 14px; background-color: rgb(252, 252, 250);&quot;&gt;在 Git 中，每当你提交更新或保存项目状态时，它基本上就会对当时的全部文件创建一个快照并保存这个快照的索引。 为了效率，如果文件没有修改，Git 不再重新存储该文件，而是只保留一个链接指向之前存储的文件。 Git 对待数据更像是一个&amp;nbsp;&lt;/span&gt;&lt;strong style=&quot;box-sizing: border-box; color: rgb(78, 68, 60); font-family: sans-serif; font-size: 14px; background-color: rgb(252, 252, 250);&quot;&gt;快照流&lt;/strong&gt;&lt;span style=&quot;color: rgb(78, 68, 60); font-family: sans-serif; font-size: 14px; background-color: rgb(252, 252, 250);&quot;&gt;。&lt;/span&gt;&lt;br&gt;&lt;/div&gt;" style="text;html=1;align=left;verticalAlign=top;whiteSpace=wrap;rounded=0;" vertex="1" parent="1">
          <mxGeometry x="230" y="20" width="550" height="100" as="geometry" />
        </mxCell>
        <mxCell id="dV2PWm62k9ZfegvU0sN4-4" value="" style="shape=image;verticalLabelPosition=bottom;labelBackgroundColor=default;verticalAlign=top;aspect=fixed;imageAspect=0;image=https://git-scm.com/book/en/v2/images/deltas.png;" vertex="1" parent="1">
          <mxGeometry x="80" y="230" width="748.39" height="290" as="geometry" />
        </mxCell>
      </root>
    </mxGraphModel>
  </diagram>
</mxfile>
